# xmcd
#
# Track frame offsets:
#	150
#	15735
#	28185
#	46428
#	68815
#	88630
#	103696
#	119022
#	139722
#	156514
#	174885
#	190488
#	209891
#	225887
#	242073
#	253635
#	267549
#	281288
#	296195
#	309487
#	325883
#	338104
#
# Disc length: 4704 seconds
#
# Revision: 0
# Processed by: cddbd v1.5.2PL0 Copyright (c) Steve Scherf et al.
# Submitted via: EasyCDDAExtractor 2010.4.0.0
#
DISCID=4f125e16
DTITLE=Various Artist - Country Hits, Vol. 28
DYEAR=2010
DGENRE=Country
TTITLE0=Little Texas - God Blessed Texas
TTITLE1=Kristy Lee Cook - Clean Break
TTITLE2=Ladies Of The Canyon - Give It Again
TTITLE3=Laura Cantrell - Queen Of The Coast
TTITLE4=Hal Ketchum - Past The Point Of Rescue
TTITLE5=Kenny Rogers - The Buckeroos
TTITLE6=Kristy Lee Cook - Hold Your Horses
TTITLE7=Little Texas - Amy's Back In Austin
TTITLE8=Clint Black - You're Gonna Leave Me Again
TTITLE9=Hal Ketchum - Someplace Far Away
TTITLE10=Hank Williams Jr. - Montana Song
TTITLE11=Kenny Rogers - Coward of The County
TTITLE12=Kristy Lee Cook - Rebel Rose
TTITLE13=Hal Ketchum - Dreams Of Martina
TTITLE14=Hoyt Axton - Never Been to Spain
TTITLE15=James Hand - The Pain Of Loving You
TTITLE16=Keith Whitley - I Wonder Where You Are Tonight
TTITLE17=Keith Whitley - Some Old Side Road
TTITLE18=Clint Black - A Big One
TTITLE19=Clint Black - Winding Down
TTITLE20=Laura Cantrell - Do You Ever Think Of Me
TTITLE21=Hoyt Axton - You Taught Me How to Cry
EXTD=
EXTT0=
EXTT1=
EXTT2=
EXTT3=
EXTT4=
EXTT5=
EXTT6=
EXTT7=
EXTT8=
EXTT9=
EXTT10=
EXTT11=
EXTT12=
EXTT13=
EXTT14=
EXTT15=
EXTT16=
EXTT17=
EXTT18=
EXTT19=
EXTT20=
EXTT21=
PLAYORDER=
